<svg xmlns="http://www.w3.org/2000/svg" xmlns:xlink="http://www.w3.org/1999/xlink" contentStyleType="text/css" height="1214px" preserveAspectRatio="none" style="width:631px;height:1214px;background:#282828;" version="1.1" viewBox="0 0 631 1214" width="631px" zoomAndPan="magnify"><defs/><g><rect fill="#282828" height="1214" style="stroke:none;stroke-width:1.0;" width="631" x="0" y="0"/><rect fill="#FFFFFF" height="105.7666" style="stroke:#E8E8E8;stroke-width:1.0;" width="576.0869" x="15" y="638.2163"/><rect fill="#FFFFFF" height="45.168" style="stroke:none;stroke-width:1.0;" width="576.0869" x="15" y="698.8149"/><line style="stroke:#000000;stroke-width:1.0;" x1="84" x2="84" y1="54.0293" y2="1161.1733"/><line style="stroke:#000000;stroke-width:1.0;" x1="393.8379" x2="393.8379" y1="54.0293" y2="1161.1733"/><line style="stroke:#000000;stroke-width:1.0;" x1="526.6826" x2="526.6826" y1="54.0293" y2="1161.1733"/><rect fill="#3C3F41" height="48.0293" rx="2.5" ry="2.5" style="stroke:#E8E8E8;stroke-width:1.0;" width="99.0938" x="35" y="5"/><text fill="#E8E8E8" font-family="Verdana" font-size="14" lengthAdjust="spacing" textLength="85.0938" x="42" y="26.0752">ACME Client</text><text fill="#E8E8E8" font-family="Verdana" font-size="14" lengthAdjust="spacing" textLength="64.3604" x="52.3667" y="43.0898">(Service)</text><rect fill="#3C3F41" height="48.0293" rx="2.5" ry="2.5" style="stroke:#E8E8E8;stroke-width:1.0;" width="99.0938" x="35" y="1160.1733"/><text fill="#E8E8E8" font-family="Verdana" font-size="14" lengthAdjust="spacing" textLength="85.0938" x="42" y="1181.2485">ACME Client</text><text fill="#E8E8E8" font-family="Verdana" font-size="14" lengthAdjust="spacing" textLength="64.3604" x="52.3667" y="1198.2632">(Service)</text><rect fill="#3C3F41" height="48.0293" rx="2.5" ry="2.5" style="stroke:#E8E8E8;stroke-width:1.0;" width="117.8447" x="335.8379" y="5"/><text fill="#E8E8E8" font-family="Verdana" font-size="14" lengthAdjust="spacing" textLength="91.4033" x="349.0586" y="26.0752">ACME Server</text><text fill="#E8E8E8" font-family="Verdana" font-size="14" lengthAdjust="spacing" textLength="103.8447" x="342.8379" y="43.0898">(Let's Encrypt)</text><rect fill="#3C3F41" height="48.0293" rx="2.5" ry="2.5" style="stroke:#E8E8E8;stroke-width:1.0;" width="117.8447" x="335.8379" y="1160.1733"/><text fill="#E8E8E8" font-family="Verdana" font-size="14" lengthAdjust="spacing" textLength="91.4033" x="349.0586" y="1181.2485">ACME Server</text><text fill="#E8E8E8" font-family="Verdana" font-size="14" lengthAdjust="spacing" textLength="103.8447" x="342.8379" y="1198.2632">(Let's Encrypt)</text><rect fill="#3C3F41" height="48.0293" rx="2.5" ry="2.5" style="stroke:#E8E8E8;stroke-width:1.0;" width="87.4043" x="483.6826" y="5"/><text fill="#E8E8E8" font-family="Verdana" font-size="14" lengthAdjust="spacing" textLength="73.4043" x="490.6826" y="26.0752">DNS/HTTP</text><text fill="#E8E8E8" font-family="Verdana" font-size="14" lengthAdjust="spacing" textLength="61.8721" x="496.4487" y="43.0898">Endpoint</text><rect fill="#3C3F41" height="48.0293" rx="2.5" ry="2.5" style="stroke:#E8E8E8;stroke-width:1.0;" width="87.4043" x="483.6826" y="1160.1733"/><text fill="#E8E8E8" font-family="Verdana" font-size="14" lengthAdjust="spacing" textLength="73.4043" x="490.6826" y="1181.2485">DNS/HTTP</text><text fill="#E8E8E8" font-family="Verdana" font-size="14" lengthAdjust="spacing" textLength="61.8721" x="496.4487" y="1198.2632">Endpoint</text><rect fill="#FFFFFF" height="3" style="stroke:#FFFFFF;stroke-width:1.0;" width="619.6494" x="5" y="84.929"/><line style="stroke:#000000;stroke-width:0.5;" x1="5" x2="624.6494" y1="84.929" y2="84.929"/><line style="stroke:#000000;stroke-width:0.5;" x1="5" x2="624.6494" y1="87.929" y2="87.929"/><rect fill="#FFFFFF" height="23.7993" style="stroke:#000000;stroke-width:1.0;" width="123.7891" x="252.9302" y="74.0293"/><text fill="#E8E8E8" font-family="Verdana" font-size="13" font-weight="bold" lengthAdjust="spacing" textLength="105.3457" x="258.9302" y="91.0991">Account Setup</text><line style="stroke:#E8E8E8;stroke-width:1.0;" x1="84.5469" x2="126.5469" y1="129.6279" y2="129.6279"/><line style="stroke:#E8E8E8;stroke-width:1.0;" x1="126.5469" x2="126.5469" y1="129.6279" y2="142.6279"/><line style="stroke:#E8E8E8;stroke-width:1.0;" x1="85.5469" x2="126.5469" y1="142.6279" y2="142.6279"/><polygon fill="#E8E8E8" points="95.5469,138.6279,85.5469,142.6279,95.5469,146.6279,91.5469,142.6279" style="stroke:#E8E8E8;stroke-width:1.0;"/><text fill="#E8E8E8" font-family="Verdana" font-size="13" lengthAdjust="spacing" textLength="172.7007" x="91.5469" y="124.8984">Generate account key pair</text><polygon fill="#E8E8E8" points="382.7603,187.2266,392.7603,191.2266,382.7603,195.2266,386.7603,191.2266" style="stroke:#E8E8E8;stroke-width:1.0;"/><line style="stroke:#E8E8E8;stroke-width:1.0;" x1="84.5469" x2="388.7603" y1="191.2266" y2="191.2266"/><text fill="#E8E8E8" font-family="Verdana" font-size="13" lengthAdjust="spacing" textLength="137.3252" x="91.5469" y="186.4971">New account request</text><path d="M399,155.6279 L399,212.6279 L613,212.6279 L613,165.6279 L603,155.6279 L399,155.6279 " fill="#3C3F41" style="stroke:#E8E8E8;stroke-width:1.0;"/><path d="M603,155.6279 L603,165.6279 L613,165.6279 L603,155.6279 " fill="#3C3F41" style="stroke:#E8E8E8;stroke-width:1.0;"/><text fill="#E8E8E8" font-family="Verdana" font-size="13" lengthAdjust="spacing" textLength="165.7437" x="405" y="173.6978">Signed with account key:</text><text fill="#E8E8E8" font-family="Verdana" font-size="13" lengthAdjust="spacing" textLength="89.3179" x="405" y="189.4971">- Contact info</text><text fill="#E8E8E8" font-family="Verdana" font-size="13" lengthAdjust="spacing" textLength="193.8892" x="405" y="205.2964">- Terms of service agreement</text><polygon fill="#E8E8E8" points="95.5469,235.8252,85.5469,239.8252,95.5469,243.8252,91.5469,239.8252" style="stroke:#E8E8E8;stroke-width:1.0;"/><line style="stroke:#E8E8E8;stroke-width:1.0;" x1="89.5469" x2="393.7603" y1="239.8252" y2="239.8252"/><text fill="#E8E8E8" font-family="Verdana" font-size="13" lengthAdjust="spacing" textLength="82.2593" x="101.5469" y="235.0957">Account URL</text><rect fill="#FFFFFF" height="3" style="stroke:#FFFFFF;stroke-width:1.0;" width="619.6494" x="5" y="268.7249"/><line style="stroke:#000000;stroke-width:0.5;" x1="5" x2="624.6494" y1="268.7249" y2="268.7249"/><line style="stroke:#000000;stroke-width:0.5;" x1="5" x2="624.6494" y1="271.7249" y2="271.7249"/><rect fill="#FFFFFF" height="23.7993" style="stroke:#000000;stroke-width:1.0;" width="157.9966" x="235.8264" y="257.8252"/><text fill="#E8E8E8" font-family="Verdana" font-size="13" font-weight="bold" lengthAdjust="spacing" textLength="139.5532" x="241.8264" y="274.895">Certificate Request</text><line style="stroke:#E8E8E8;stroke-width:1.0;" x1="84.5469" x2="126.5469" y1="313.4238" y2="313.4238"/><line style="stroke:#E8E8E8;stroke-width:1.0;" x1="126.5469" x2="126.5469" y1="313.4238" y2="326.4238"/><line style="stroke:#E8E8E8;stroke-width:1.0;" x1="85.5469" x2="126.5469" y1="326.4238" y2="326.4238"/><polygon fill="#E8E8E8" points="95.5469,322.4238,85.5469,326.4238,95.5469,330.4238,91.5469,326.4238" style="stroke:#E8E8E8;stroke-width:1.0;"/><text fill="#E8E8E8" font-family="Verdana" font-size="13" lengthAdjust="spacing" textLength="148.8843" x="91.5469" y="308.6943">Generate CSR key pair</text><polygon fill="#E8E8E8" points="382.7603,371.0225,392.7603,375.0225,382.7603,379.0225,386.7603,375.0225" style="stroke:#E8E8E8;stroke-width:1.0;"/><line style="stroke:#E8E8E8;stroke-width:1.0;" x1="84.5469" x2="388.7603" y1="375.0225" y2="375.0225"/><text fill="#E8E8E8" font-family="Verdana" font-size="13" lengthAdjust="spacing" textLength="67.5073" x="91.5469" y="370.293">New order</text><path d="M399,339.4238 L399,396.4238 L570,396.4238 L570,349.4238 L560,339.4238 L399,339.4238 " fill="#3C3F41" style="stroke:#E8E8E8;stroke-width:1.0;"/><path d="M560,339.4238 L560,349.4238 L570,349.4238 L560,339.4238 " fill="#3C3F41" style="stroke:#E8E8E8;stroke-width:1.0;"/><text fill="#E8E8E8" font-family="Verdana" font-size="13" lengthAdjust="spacing" textLength="150.1411" x="405" y="357.4937">Request for certificate:</text><text fill="#E8E8E8" font-family="Verdana" font-size="13" lengthAdjust="spacing" textLength="108.3926" x="405" y="373.293">- Domain names</text><text fill="#E8E8E8" font-family="Verdana" font-size="13" lengthAdjust="spacing" textLength="117.9648" x="405" y="389.0923">- Not Before/After</text><polygon fill="#E8E8E8" points="95.5469,419.6211,85.5469,423.6211,95.5469,427.6211,91.5469,423.6211" style="stroke:#E8E8E8;stroke-width:1.0;"/><line style="stroke:#E8E8E8;stroke-width:1.0;" x1="89.5469" x2="393.7603" y1="423.6211" y2="423.6211"/><text fill="#E8E8E8" font-family="Verdana" font-size="13" lengthAdjust="spacing" textLength="214.6587" x="101.5469" y="418.8916">Authorization URLs + Challenges</text><rect fill="#FFFFFF" height="3" style="stroke:#FFFFFF;stroke-width:1.0;" width="619.6494" x="5" y="452.5208"/><line style="stroke:#000000;stroke-width:0.5;" x1="5" x2="624.6494" y1="452.5208" y2="452.5208"/><line style="stroke:#000000;stroke-width:0.5;" x1="5" x2="624.6494" y1="455.5208" y2="455.5208"/><rect fill="#FFFFFF" height="23.7993" style="stroke:#000000;stroke-width:1.0;" width="152.5693" x="238.54" y="441.6211"/><text fill="#E8E8E8" font-family="Verdana" font-size="13" font-weight="bold" lengthAdjust="spacing" textLength="134.126" x="244.54" y="458.6909">Domain Validation</text><polygon fill="#E8E8E8" points="382.7603,493.2197,392.7603,497.2197,382.7603,501.2197,386.7603,497.2197" style="stroke:#E8E8E8;stroke-width:1.0;"/><line style="stroke:#E8E8E8;stroke-width:1.0;" x1="84.5469" x2="388.7603" y1="497.2197" y2="497.2197"/><text fill="#E8E8E8" font-family="Verdana" font-size="13" lengthAdjust="spacing" textLength="125.8486" x="91.5469" y="492.4902">Request challenges</text><polygon fill="#E8E8E8" points="95.5469,549.718,85.5469,553.718,95.5469,557.718,91.5469,553.718" style="stroke:#E8E8E8;stroke-width:1.0;"/><line style="stroke:#E8E8E8;stroke-width:1.0;" x1="89.5469" x2="393.7603" y1="553.718" y2="553.718"/><text fill="#E8E8E8" font-family="Verdana" font-size="13" lengthAdjust="spacing" textLength="111.3125" x="101.5469" y="548.9885">Challenge details</text><path d="M399,510.2197 L399,583.2197 L516,583.2197 L516,520.2197 L506,510.2197 L399,510.2197 " fill="#3C3F41" style="stroke:#E8E8E8;stroke-width:1.0;"/><path d="M506,510.2197 L506,520.2197 L516,520.2197 L506,510.2197 " fill="#3C3F41" style="stroke:#E8E8E8;stroke-width:1.0;"/><text fill="#E8E8E8" font-family="Verdana" font-size="13" lengthAdjust="spacing" textLength="44.2241" x="405" y="528.2896">Types:</text><text fill="#E8E8E8" font-family="Verdana" font-size="13" lengthAdjust="spacing" textLength="66.5361" x="405" y="544.0889">- HTTP-01</text><text fill="#E8E8E8" font-family="Verdana" font-size="13" lengthAdjust="spacing" textLength="61.5342" x="405" y="559.8882">- DNS-01</text><text fill="#E8E8E8" font-family="Verdana" font-size="13" lengthAdjust="spacing" textLength="96.6304" x="405" y="575.6875">- TLS-ALPN-01</text><line style="stroke:#E8E8E8;stroke-width:1.0;" x1="84.5469" x2="126.5469" y1="610.2163" y2="610.2163"/><line style="stroke:#E8E8E8;stroke-width:1.0;" x1="126.5469" x2="126.5469" y1="610.2163" y2="623.2163"/><line style="stroke:#E8E8E8;stroke-width:1.0;" x1="85.5469" x2="126.5469" y1="623.2163" y2="623.2163"/><polygon fill="#E8E8E8" points="95.5469,619.2163,85.5469,623.2163,95.5469,627.2163,91.5469,623.2163" style="stroke:#E8E8E8;stroke-width:1.0;"/><text fill="#E8E8E8" font-family="Verdana" font-size="13" lengthAdjust="spacing" textLength="180.0259" x="91.5469" y="605.4868">Prepare challenge response</text><path d="M15,638.2163 L79.0493,638.2163 L79.0493,646.0156 L69.0493,656.0156 L15,656.0156 L15,638.2163 " fill="#FFFFFF" style="stroke:#E8E8E8;stroke-width:1.0;"/><rect fill="none" height="105.7666" style="stroke:#E8E8E8;stroke-width:1.0;" width="576.0869" x="15" y="638.2163"/><text fill="#E8E8E8" font-family="Verdana" font-size="13" font-weight="bold" lengthAdjust="spacing" textLength="19.0493" x="30" y="652.2861">alt</text><text fill="#E8E8E8" font-family="Verdana" font-size="11" font-weight="bold" lengthAdjust="spacing" textLength="108.7861" x="94.0493" y="651.2754">[HTTP Challenge]</text><line style="stroke:#E8E8E8;stroke-width:1.0;" x1="84.5469" x2="126.5469" y1="677.8149" y2="677.8149"/><line style="stroke:#E8E8E8;stroke-width:1.0;" x1="126.5469" x2="126.5469" y1="677.8149" y2="690.8149"/><line style="stroke:#E8E8E8;stroke-width:1.0;" x1="85.5469" x2="126.5469" y1="690.8149" y2="690.8149"/><polygon fill="#E8E8E8" points="95.5469,686.8149,85.5469,690.8149,95.5469,694.8149,91.5469,690.8149" style="stroke:#E8E8E8;stroke-width:1.0;"/><text fill="#E8E8E8" font-family="Verdana" font-size="13" lengthAdjust="spacing" textLength="296.2134" x="91.5469" y="673.0854">Place token at /.well-known/acme-challenge/</text><line style="stroke:#E8E8E8;stroke-width:1.0;stroke-dasharray:2.0,2.0;" x1="15" x2="591.0869" y1="699.8149" y2="699.8149"/><text fill="#E8E8E8" font-family="Verdana" font-size="11" font-weight="bold" lengthAdjust="spacing" textLength="102.7759" x="20" y="710.874">[DNS Challenge]</text><polygon fill="#E8E8E8" points="515.3848,731.9829,525.3848,735.9829,515.3848,739.9829,519.3848,735.9829" style="stroke:#E8E8E8;stroke-width:1.0;"/><line style="stroke:#E8E8E8;stroke-width:1.0;" x1="84.5469" x2="521.3848" y1="735.9829" y2="735.9829"/><text fill="#E8E8E8" font-family="Verdana" font-size="13" lengthAdjust="spacing" textLength="100.7563" x="91.5469" y="731.2534">Add TXT record</text><polygon fill="#E8E8E8" points="382.7603,768.7822,392.7603,772.7822,382.7603,776.7822,386.7603,772.7822" style="stroke:#E8E8E8;stroke-width:1.0;"/><line style="stroke:#E8E8E8;stroke-width:1.0;" x1="84.5469" x2="388.7603" y1="772.7822" y2="772.7822"/><text fill="#E8E8E8" font-family="Verdana" font-size="13" lengthAdjust="spacing" textLength="105.5234" x="91.5469" y="768.0527">Challenge ready</text><polygon fill="#E8E8E8" points="515.3848,798.5815,525.3848,802.5815,515.3848,806.5815,519.3848,802.5815" style="stroke:#E8E8E8;stroke-width:1.0;"/><line style="stroke:#E8E8E8;stroke-width:1.0;" x1="394.7603" x2="521.3848" y1="802.5815" y2="802.5815"/><text fill="#E8E8E8" font-family="Verdana" font-size="13" lengthAdjust="spacing" textLength="104.3364" x="401.7603" y="797.8521">Verify challenge</text><polygon fill="#E8E8E8" points="95.5469,828.3809,85.5469,832.3809,95.5469,836.3809,91.5469,832.3809" style="stroke:#E8E8E8;stroke-width:1.0;"/><line style="stroke:#E8E8E8;stroke-width:1.0;" x1="89.5469" x2="393.7603" y1="832.3809" y2="832.3809"/><text fill="#E8E8E8" font-family="Verdana" font-size="13" lengthAdjust="spacing" textLength="128.1401" x="101.5469" y="827.6514">Challenge validated</text><rect fill="#FFFFFF" height="3" style="stroke:#FFFFFF;stroke-width:1.0;" width="619.6494" x="5" y="861.2805"/><line style="stroke:#000000;stroke-width:0.5;" x1="5" x2="624.6494" y1="861.2805" y2="861.2805"/><line style="stroke:#000000;stroke-width:0.5;" x1="5" x2="624.6494" y1="864.2805" y2="864.2805"/><rect fill="#FFFFFF" height="23.7993" style="stroke:#000000;stroke-width:1.0;" width="164.5854" x="232.532" y="850.3809"/><text fill="#E8E8E8" font-family="Verdana" font-size="13" font-weight="bold" lengthAdjust="spacing" textLength="146.1421" x="238.532" y="867.4507">Certificate Issuance</text><polygon fill="#E8E8E8" points="382.7603,928.6785,392.7603,932.6785,382.7603,936.6785,386.7603,932.6785" style="stroke:#E8E8E8;stroke-width:1.0;"/><line style="stroke:#E8E8E8;stroke-width:1.0;" x1="84.5469" x2="388.7603" y1="932.6785" y2="932.6785"/><text fill="#E8E8E8" font-family="Verdana" font-size="13" lengthAdjust="spacing" textLength="78.1206" x="91.5469" y="927.949">Submit CSR</text><path d="M399,889.1802 L399,962.1802 L603,962.1802 L603,899.1802 L593,889.1802 L399,889.1802 " fill="#3C3F41" style="stroke:#E8E8E8;stroke-width:1.0;"/><path d="M593,889.1802 L593,899.1802 L603,899.1802 L593,889.1802 " fill="#3C3F41" style="stroke:#E8E8E8;stroke-width:1.0;"/><text fill="#E8E8E8" font-family="Verdana" font-size="13" lengthAdjust="spacing" textLength="183.1108" x="405" y="907.25">Certificate Signing Request:</text><text fill="#E8E8E8" font-family="Verdana" font-size="13" lengthAdjust="spacing" textLength="76.248" x="405" y="923.0493">- Public key</text><text fill="#E8E8E8" font-family="Verdana" font-size="13" lengthAdjust="spacing" textLength="108.3926" x="405" y="938.8486">- Domain names</text><text fill="#E8E8E8" font-family="Verdana" font-size="13" lengthAdjust="spacing" textLength="134.7354" x="405" y="954.6479">- Signed by CSR key</text><polygon fill="#E8E8E8" points="95.5469,1003.9761,85.5469,1007.9761,95.5469,1011.9761,91.5469,1007.9761" style="stroke:#E8E8E8;stroke-width:1.0;"/><line style="stroke:#E8E8E8;stroke-width:1.0;" x1="89.5469" x2="393.7603" y1="1007.9761" y2="1007.9761"/><text fill="#E8E8E8" font-family="Verdana" font-size="13" lengthAdjust="spacing" textLength="66.644" x="101.5469" y="1003.2466">Certificate</text><path d="M399,972.3774 L399,1029.3774 L573,1029.3774 L573,982.3774 L563,972.3774 L399,972.3774 " fill="#3C3F41" style="stroke:#E8E8E8;stroke-width:1.0;"/><path d="M563,972.3774 L563,982.3774 L573,982.3774 L563,972.3774 " fill="#3C3F41" style="stroke:#E8E8E8;stroke-width:1.0;"/><text fill="#E8E8E8" font-family="Verdana" font-size="13" lengthAdjust="spacing" textLength="110.5508" x="405" y="990.4473">Valid for 90 days</text><text fill="#E8E8E8" font-family="Verdana" font-size="13" lengthAdjust="spacing" textLength="153.7593" x="405" y="1006.2466">Ready for auto-renewal</text><text fill="#E8E8E8" font-family="Verdana" font-size="13" lengthAdjust="spacing" textLength="68.9736" x="405" y="1022.0459">at 60 days</text><rect fill="#FFFFFF" height="3" style="stroke:#FFFFFF;stroke-width:1.0;" width="619.6494" x="5" y="1055.675"/><line style="stroke:#000000;stroke-width:0.5;" x1="5" x2="624.6494" y1="1055.675" y2="1055.675"/><line style="stroke:#000000;stroke-width:0.5;" x1="5" x2="624.6494" y1="1058.675" y2="1058.675"/><rect fill="#FFFFFF" height="23.7993" style="stroke:#000000;stroke-width:1.0;" width="195.0352" x="217.3071" y="1044.7754"/><text fill="#E8E8E8" font-family="Verdana" font-size="13" font-weight="bold" lengthAdjust="spacing" textLength="176.5918" x="223.3071" y="1061.8452">Renewal (60 days later)</text><line style="stroke:#E8E8E8;stroke-width:1.0;" x1="84.5469" x2="126.5469" y1="1100.374" y2="1100.374"/><line style="stroke:#E8E8E8;stroke-width:1.0;" x1="126.5469" x2="126.5469" y1="1100.374" y2="1113.374"/><line style="stroke:#E8E8E8;stroke-width:1.0;" x1="85.5469" x2="126.5469" y1="1113.374" y2="1113.374"/><polygon fill="#E8E8E8" points="95.5469,1109.374,85.5469,1113.374,95.5469,1117.374,91.5469,1113.374" style="stroke:#E8E8E8;stroke-width:1.0;"/><text fill="#E8E8E8" font-family="Verdana" font-size="13" lengthAdjust="spacing" textLength="123.8745" x="91.5469" y="1095.6445">Monitor cert expiry</text><polygon fill="#E8E8E8" points="382.7603,1139.1733,392.7603,1143.1733,382.7603,1147.1733,386.7603,1143.1733" style="stroke:#E8E8E8;stroke-width:1.0;"/><line style="stroke:#E8E8E8;stroke-width:1.0;" x1="84.5469" x2="388.7603" y1="1143.1733" y2="1143.1733"/><text fill="#E8E8E8" font-family="Verdana" font-size="13" lengthAdjust="spacing" textLength="173.0244" x="91.5469" y="1138.4438">New order (same process)</text><!--SRC=[XLLHRzem47xFhxXr3sirCTfrchfAJ8AKTfCeGeHLU-YBIGwmC7PcEsNPhz_PIKXQ0YWFWE_ptVTzTnVUsHLk45B1k0pCcikKQRQ1EOlNIwqocOHAA0tlFz-ufu6ummNBXBrNqfQGuOrx6f2-rcfxA1ZXdmnbZ0zK9HqedQ1-3MrW9qnR7lEKIJjuI-mwlBx_SdK0t9As5RYlee4RAukdothKqNeESRHGOSN9IgLZIJuusQI3vhw1jD1AQtUeL_g5nmZCm5a_V1n2A3XA-opFoyZ5sIkyn-p03eEQm2Eq7mmCPQpprBwvSZUE_0twxFwOpIRFSYYJL75fpuAWruD-79DGHyLcAVHwGSMfyxsYTmiFA54pIqHBz1fpI1dNJRJZT0jZtEvGsesYiO6a1e7covNTkGuGyQN41BRShfffRodKWP1yOx45BXVA7ynGRmoe1PZAigL6MZ1f0vG9k0g1DwL9kzBsQphoMaCaNnOyTagc1RUJYiDeUaAjdu9sZLMH1Gr0N1SlDDwf3RqRGB8D6dz0Smm392ns-mjBEOyeo-nAQVwFMQwaqsVW8uGh9WJA9QLpQilyJqpmfC2zrbeeg2Z6zUMzQhl4aA1bN9XsjRCyHLDeSvFMkRmgT8wZwkji57NweydO_Tw9Q_L_ef6c66jQD4mcLT9Wm8Jr-MjQb1kWDOjWT6BL6YKm2zrFMnIYivPgAxiitc1dbxuRe33ej-LWMWgIyqa2izypeXDJuvsAOD_KiC6Q9VdEKP_X2JLVvBMoOtw_5Ct3P6z-VngJCNhDjpOrokORRjtijdUgcSZj8PVBQX2A_asokU2n6_psKIsNTvvN-z5evxwSkbex7J-YVac-NKB2SkDNXuppPoopggDf7xTCK83w-BL4rJN9d6c1WFCo2eBgwOj32_we9BVbMWB-JRdEZwmtd1lc_isrYj6OY_y0]--></g></svg>