<svg xmlns="http://www.w3.org/2000/svg" xmlns:xlink="http://www.w3.org/1999/xlink" contentStyleType="text/css" height="635px" preserveAspectRatio="none" style="width:808px;height:635px;background:#282828;" version="1.1" viewBox="0 0 808 635" width="808px" zoomAndPan="magnify"><defs/><g><rect fill="#282828" height="635" style="stroke:none;stroke-width:1.0;" width="808" x="0" y="0"/><line style="stroke:#CCCCCC;stroke-width:1.0;" x1="94" x2="94" y1="54.0293" y2="582.417"/><line style="stroke:#CCCCCC;stroke-width:1.0;" x1="279.3433" x2="279.3433" y1="54.0293" y2="582.417"/><line style="stroke:#CCCCCC;stroke-width:1.0;" x1="428.1235" x2="428.1235" y1="54.0293" y2="582.417"/><line style="stroke:#CCCCCC;stroke-width:1.0;" x1="588.9878" x2="588.9878" y1="54.0293" y2="582.417"/><rect fill="#3C3F41" height="48.0293" rx="2.5" ry="2.5" style="stroke:#E8E8E8;stroke-width:1.0;" width="148.0254" x="20" y="5"/><text fill="#E8E8E8" font-family="Verdana" font-size="14" lengthAdjust="spacing" textLength="40.1748" x="73.9253" y="26.0752">Client</text><text fill="#E8E8E8" font-family="Verdana" font-size="14" lengthAdjust="spacing" textLength="134.0254" x="27" y="43.0898">(User Workstation)</text><rect fill="#3C3F41" height="48.0293" rx="2.5" ry="2.5" style="stroke:#E8E8E8;stroke-width:1.0;" width="148.0254" x="20" y="581.417"/><text fill="#E8E8E8" font-family="Verdana" font-size="14" lengthAdjust="spacing" textLength="40.1748" x="73.9253" y="602.4922">Client</text><text fill="#E8E8E8" font-family="Verdana" font-size="14" lengthAdjust="spacing" textLength="134.0254" x="27" y="619.5068">(User Workstation)</text><rect fill="#3C3F41" height="48.0293" rx="2.5" ry="2.5" style="stroke:#E8E8E8;stroke-width:1.0;" width="115.7803" x="222.3433" y="5"/><text fill="#E8E8E8" font-family="Verdana" font-size="14" lengthAdjust="spacing" textLength="101.7803" x="229.3433" y="26.0752">Authentication</text><text fill="#E8E8E8" font-family="Verdana" font-size="14" lengthAdjust="spacing" textLength="88.4229" x="236.022" y="43.0898">Service (AS)</text><rect fill="#3C3F41" height="48.0293" rx="2.5" ry="2.5" style="stroke:#E8E8E8;stroke-width:1.0;" width="115.7803" x="222.3433" y="581.417"/><text fill="#E8E8E8" font-family="Verdana" font-size="14" lengthAdjust="spacing" textLength="101.7803" x="229.3433" y="602.4922">Authentication</text><text fill="#E8E8E8" font-family="Verdana" font-size="14" lengthAdjust="spacing" textLength="88.4229" x="236.022" y="619.5068">Service (AS)</text><rect fill="#3C3F41" height="48.0293" rx="2.5" ry="2.5" style="stroke:#E8E8E8;stroke-width:1.0;" width="121.8643" x="368.1235" y="5"/><text fill="#E8E8E8" font-family="Verdana" font-size="14" lengthAdjust="spacing" textLength="107.8643" x="375.1235" y="26.0752">Ticket Granting</text><text fill="#E8E8E8" font-family="Verdana" font-size="14" lengthAdjust="spacing" textLength="98.335" x="379.8882" y="43.0898">Service (TGS)</text><rect fill="#3C3F41" height="48.0293" rx="2.5" ry="2.5" style="stroke:#E8E8E8;stroke-width:1.0;" width="121.8643" x="368.1235" y="581.417"/><text fill="#E8E8E8" font-family="Verdana" font-size="14" lengthAdjust="spacing" textLength="107.8643" x="375.1235" y="602.4922">Ticket Granting</text><text fill="#E8E8E8" font-family="Verdana" font-size="14" lengthAdjust="spacing" textLength="98.335" x="379.8882" y="619.5068">Service (TGS)</text><rect fill="#3C3F41" height="48.0293" rx="2.5" ry="2.5" style="stroke:#E8E8E8;stroke-width:1.0;" width="139.4531" x="519.9878" y="5"/><text fill="#E8E8E8" font-family="Verdana" font-size="14" lengthAdjust="spacing" textLength="51.6455" x="563.8916" y="26.0752">Service</text><text fill="#E8E8E8" font-family="Verdana" font-size="14" lengthAdjust="spacing" textLength="125.4531" x="526.9878" y="43.0898">(e.g., File Server)</text><rect fill="#3C3F41" height="48.0293" rx="2.5" ry="2.5" style="stroke:#E8E8E8;stroke-width:1.0;" width="139.4531" x="519.9878" y="581.417"/><text fill="#E8E8E8" font-family="Verdana" font-size="14" lengthAdjust="spacing" textLength="51.6455" x="563.8916" y="602.4922">Service</text><text fill="#E8E8E8" font-family="Verdana" font-size="14" lengthAdjust="spacing" textLength="125.4531" x="526.9878" y="619.5068">(e.g., File Server)</text><path d="M14,69.0293 L14,94.0293 L668,94.0293 L668,79.0293 L658,69.0293 L14,69.0293 " fill="#3C3F41" style="stroke:#E8E8E8;stroke-width:1.0;"/><path d="M658,69.0293 L658,79.0293 L668,79.0293 L658,69.0293 " fill="#3C3F41" style="stroke:#E8E8E8;stroke-width:1.0;"/><text fill="#E8E8E8" font-family="Verdana" font-size="13" lengthAdjust="spacing" textLength="345.2236" x="164.1086" y="87.0991">Initial Authentication and Service Access in Kerberos</text><rect fill="#FFFFFF" height="3" style="stroke:#FFFFFF;stroke-width:1.0;" width="796.7158" x="5" y="120.7283"/><line style="stroke:#000000;stroke-width:0.5;" x1="5" x2="801.7158" y1="120.7283" y2="120.7283"/><line style="stroke:#000000;stroke-width:0.5;" x1="5" x2="801.7158" y1="123.7283" y2="123.7283"/><rect fill="#FFFFFF" height="23.7993" style="stroke:#000000;stroke-width:1.0;" width="174.3862" x="316.1648" y="109.8286"/><text fill="#000000" font-family="Verdana" font-size="13" font-weight="bold" lengthAdjust="spacing" textLength="155.9429" x="322.1648" y="126.8984">Authentication Phase</text><polygon fill="#E8E8E8" points="268.2334,172.3269,278.2334,176.3269,268.2334,180.3269,272.2334,176.3269" style="stroke:#E8E8E8;stroke-width:1.0;"/><line style="stroke:#E8E8E8;stroke-width:1.0;" x1="94.0127" x2="274.2334" y1="176.3269" y2="176.3269"/><text fill="#E8E8E8" font-family="Verdana" font-size="13" lengthAdjust="spacing" textLength="162.2207" x="101.0127" y="171.5974">1. AuthRequest(User ID)</text><path d="M285,148.6279 L285,189.6279 L436,189.6279 L436,158.6279 L426,148.6279 L285,148.6279 " fill="#3C3F41" style="stroke:#E8E8E8;stroke-width:1.0;"/><path d="M426,148.6279 L426,158.6279 L436,158.6279 L426,148.6279 " fill="#3C3F41" style="stroke:#E8E8E8;stroke-width:1.0;"/><text fill="#E8E8E8" font-family="Verdana" font-size="13" lengthAdjust="spacing" textLength="116.251" x="291" y="166.6978">No password sent</text><text fill="#E8E8E8" font-family="Verdana" font-size="13" lengthAdjust="spacing" textLength="130.7871" x="291" y="182.4971">Contains timestamp</text><polygon fill="#E8E8E8" points="105.0127,231.8252,95.0127,235.8252,105.0127,239.8252,101.0127,235.8252" style="stroke:#E8E8E8;stroke-width:1.0;"/><line style="stroke:#E8E8E8;stroke-width:1.0;" x1="99.0127" x2="279.2334" y1="235.8252" y2="235.8252"/><text fill="#E8E8E8" font-family="Verdana" font-size="13" lengthAdjust="spacing" textLength="142.3208" x="111.0127" y="231.0957">2. TGT + Session Key</text><path d="M285,200.2266 L285,257.2266 L509,257.2266 L509,210.2266 L499,200.2266 L285,200.2266 " fill="#3C3F41" style="stroke:#E8E8E8;stroke-width:1.0;"/><path d="M499,200.2266 L499,210.2266 L509,210.2266 L499,200.2266 " fill="#3C3F41" style="stroke:#E8E8E8;stroke-width:1.0;"/><text fill="#E8E8E8" font-family="Verdana" font-size="13" lengthAdjust="spacing" textLength="203.1313" x="291" y="218.2964">TGT is encrypted with KDC key</text><text fill="#E8E8E8" font-family="Verdana" font-size="13" lengthAdjust="spacing" textLength="179.3086" x="291" y="234.0957">Session key encrypted with</text><text fill="#E8E8E8" font-family="Verdana" font-size="13" lengthAdjust="spacing" textLength="186.856" x="291" y="249.895">user's password-derived key</text><rect fill="#FFFFFF" height="3" style="stroke:#FFFFFF;stroke-width:1.0;" width="796.7158" x="5" y="283.5242"/><line style="stroke:#000000;stroke-width:0.5;" x1="5" x2="801.7158" y1="283.5242" y2="283.5242"/><line style="stroke:#000000;stroke-width:0.5;" x1="5" x2="801.7158" y1="286.5242" y2="286.5242"/><rect fill="#FFFFFF" height="23.7993" style="stroke:#000000;stroke-width:1.0;" width="168.8828" x="318.9165" y="272.6245"/><text fill="#000000" font-family="Verdana" font-size="13" font-weight="bold" lengthAdjust="spacing" textLength="150.4395" x="324.9165" y="289.6943">Service Ticket Phase</text><polygon fill="#E8E8E8" points="417.0557,335.1228,427.0557,339.1228,417.0557,343.1228,421.0557,339.1228" style="stroke:#E8E8E8;stroke-width:1.0;"/><line style="stroke:#E8E8E8;stroke-width:1.0;" x1="94.0127" x2="423.0557" y1="339.1228" y2="339.1228"/><text fill="#E8E8E8" font-family="Verdana" font-size="13" lengthAdjust="spacing" textLength="131.46" x="101.0127" y="334.3933">3. TGT + Service ID</text><path d="M434,311.4238 L434,352.4238 L626,352.4238 L626,321.4238 L616,311.4238 L434,311.4238 " fill="#3C3F41" style="stroke:#E8E8E8;stroke-width:1.0;"/><path d="M616,311.4238 L616,321.4238 L626,321.4238 L616,311.4238 " fill="#3C3F41" style="stroke:#E8E8E8;stroke-width:1.0;"/><text fill="#E8E8E8" font-family="Verdana" font-size="13" lengthAdjust="spacing" textLength="157.2822" x="440" y="329.4937">Client presents TGT and</text><text fill="#E8E8E8" font-family="Verdana" font-size="13" lengthAdjust="spacing" textLength="171.2407" x="440" y="345.293">requests access to service</text><polygon fill="#E8E8E8" points="105.0127,386.7214,95.0127,390.7214,105.0127,394.7214,101.0127,390.7214" style="stroke:#E8E8E8;stroke-width:1.0;"/><line style="stroke:#E8E8E8;stroke-width:1.0;" x1="99.0127" x2="428.0557" y1="390.7214" y2="390.7214"/><text fill="#E8E8E8" font-family="Verdana" font-size="13" lengthAdjust="spacing" textLength="260.1841" x="111.0127" y="385.9919">4. Service Ticket + Service Session Key</text><path d="M434,363.0225 L434,404.0225 L613,404.0225 L613,373.0225 L603,363.0225 L434,363.0225 " fill="#3C3F41" style="stroke:#E8E8E8;stroke-width:1.0;"/><path d="M603,363.0225 L603,373.0225 L613,373.0225 L603,363.0225 " fill="#3C3F41" style="stroke:#E8E8E8;stroke-width:1.0;"/><text fill="#E8E8E8" font-family="Verdana" font-size="13" lengthAdjust="spacing" textLength="158.1709" x="440" y="381.0923">Service ticket encrypted</text><text fill="#E8E8E8" font-family="Verdana" font-size="13" lengthAdjust="spacing" textLength="115.9336" x="440" y="396.8916">with service's key</text><rect fill="#FFFFFF" height="3" style="stroke:#FFFFFF;stroke-width:1.0;" width="796.7158" x="5" y="430.5208"/><line style="stroke:#000000;stroke-width:0.5;" x1="5" x2="801.7158" y1="430.5208" y2="430.5208"/><line style="stroke:#000000;stroke-width:0.5;" x1="5" x2="801.7158" y1="433.5208" y2="433.5208"/><rect fill="#FFFFFF" height="23.7993" style="stroke:#000000;stroke-width:1.0;" width="174.1006" x="316.3076" y="419.6211"/><text fill="#000000" font-family="Verdana" font-size="13" font-weight="bold" lengthAdjust="spacing" textLength="155.6572" x="322.3076" y="436.6909">Service Access Phase</text><polygon fill="#E8E8E8" points="577.7144,490.019,587.7144,494.019,577.7144,498.019,581.7144,494.019" style="stroke:#E8E8E8;stroke-width:1.0;"/><line style="stroke:#E8E8E8;stroke-width:1.0;" x1="94.0127" x2="583.7144" y1="494.019" y2="494.019"/><text fill="#E8E8E8" font-family="Verdana" font-size="13" lengthAdjust="spacing" textLength="217.0454" x="101.0127" y="489.2896">5. Service Ticket + Authenticator</text><path d="M594,458.4204 L594,515.4204 L791,515.4204 L791,468.4204 L781,458.4204 L594,458.4204 " fill="#3C3F41" style="stroke:#E8E8E8;stroke-width:1.0;"/><path d="M781,458.4204 L781,468.4204 L791,468.4204 L781,458.4204 " fill="#3C3F41" style="stroke:#E8E8E8;stroke-width:1.0;"/><text fill="#E8E8E8" font-family="Verdana" font-size="13" lengthAdjust="spacing" textLength="147.2212" x="600" y="476.4902">Authenticator contains</text><text fill="#E8E8E8" font-family="Verdana" font-size="13" lengthAdjust="spacing" textLength="176.0015" x="600" y="492.2896">timestamp, encrypted with</text><text fill="#E8E8E8" font-family="Verdana" font-size="13" lengthAdjust="spacing" textLength="125.8613" x="600" y="508.0889">service session key</text><polygon fill="#E8E8E8" points="105.0127,549.5173,95.0127,553.5173,105.0127,557.5173,101.0127,553.5173" style="stroke:#E8E8E8;stroke-width:1.0;"/><line style="stroke:#E8E8E8;stroke-width:1.0;" x1="99.0127" x2="588.7144" y1="553.5173" y2="553.5173"/><text fill="#E8E8E8" font-family="Verdana" font-size="13" lengthAdjust="spacing" textLength="212.1577" x="111.0127" y="548.7878">6. Success (optional timestamp)</text><path d="M594,525.8184 L594,566.8184 L766,566.8184 L766,535.8184 L756,525.8184 L594,525.8184 " fill="#3C3F41" style="stroke:#E8E8E8;stroke-width:1.0;"/><path d="M756,525.8184 L756,535.8184 L766,535.8184 L756,525.8184 " fill="#3C3F41" style="stroke:#E8E8E8;stroke-width:1.0;"/><text fill="#E8E8E8" font-family="Verdana" font-size="13" lengthAdjust="spacing" textLength="151.3027" x="600" y="543.8882">Service validates ticket</text><text fill="#E8E8E8" font-family="Verdana" font-size="13" lengthAdjust="spacing" textLength="115.8892" x="600" y="559.6875">and authenticator</text><!--SRC=[jLNRRXen47tVhvYc3mrgGfgGLX4IbRYKDA9AevAgBtanom0MYxsr3IJz-ewz5xpB0cdJUeLOTiwSEJupU5-P6IuGueXn4UWv5p5JR04Z5iwdIYx5k2iZgU3rnPMzF4GF9smPcRuK9eLykhAN1sah9TUxWaFykKGHuZLLYJjIZL4LeHxsZYd3GnupOJfbOOrketzvlWDSGLi9tDw5XxkL1W-NTQYzzInYRw6Y9GShbXmSFtKEDcsdsIN8ysL-HaPa-wRW_-ygI_d29nXnKMn3w5QL_XvVyQBsTsuzMtklOI-WTNP6KAEzlms43ZEXZtqGmqW-edxM_3VSWdJbr0xoPxIbhVNx06NQ2K6sI2CsmcWlwv3_GZY_XD8Yrg-nuLAmgEdnQulUeg_gIKS-lipccPj7lOFwdzjCf7zhybwbB_OuOm-2U7FCGJVYI5zCmr5o-o2ElslQxm-fvjemIrixAgIqXmxUNjABGj1JXtaGGrGh7Y8SjuUbXFlh9EEUXtCqT9xGGowcNWeXIZbPoEQbzwGCwzFw2VHvX0w0Yh82GQSeIFgHRkOaJyxE4e0RmGrd4HH50wDvoS3jC4IjWGiOe1gXaZf02bls86YrogbtCwOHMgqWTV3q8ndJXFEw0twpZTCciVAcLqj4AZwT6K_LhOIOQRsc2GDD9FIeIvsZ5wy6mnT4m1QnfuASfp99mIPSrCdPUtXBEz3QIXhWKtKT2-CQQ9BKKsnm36jkPZ3eTM5EAP0JqAyIY89Bsi8RdGizfI7YAmhRr891cP5fcoiCeZOteR6HdU1lUjMgqxnOeVL6kong64LKugu6blJCIBBFaNcAxDHvRbtMom8t2WuQc05DafbxH25dPLgTRDhfIZfU5QwaY2Qyhv3eJPrKrU8A43fKaW6YG3v29zjTJHNJTzvwJtScm_Fl0ubR9diubkbfiwbGs-_RYaLyp0pgr44AsRyUAsmkA_yR]--></g></svg>