<svg xmlns="http://www.w3.org/2000/svg" xmlns:xlink="http://www.w3.org/1999/xlink" contentStyleType="text/css" height="982px" preserveAspectRatio="none" style="width:785px;height:982px;background:#282828;" version="1.1" viewBox="0 0 785 982" width="785px" zoomAndPan="magnify"><defs/><g><rect fill="#282828" height="982" style="stroke:none;stroke-width:1.0;" width="785" x="0" y="0"/><line style="stroke:#000000;stroke-width:1.0;" x1="116" x2="116" y1="54.0293" y2="929.8047"/><line style="stroke:#000000;stroke-width:1.0;" x1="216.1162" x2="216.1162" y1="54.0293" y2="929.8047"/><line style="stroke:#000000;stroke-width:1.0;" x1="402.2837" x2="402.2837" y1="54.0293" y2="929.8047"/><line style="stroke:#000000;stroke-width:1.0;" x1="567.4302" x2="567.4302" y1="54.0293" y2="929.8047"/><rect fill="#3C3F41" height="48.0293" rx="2.5" ry="2.5" style="stroke:#E8E8E8;stroke-width:1.0;" width="84.1162" x="74" y="5"/><text fill="#E8E8E8" font-family="Verdana" font-size="14" lengthAdjust="spacing" textLength="36.0322" x="98.042" y="26.0752">Node</text><text fill="#E8E8E8" font-family="Verdana" font-size="14" lengthAdjust="spacing" textLength="70.1162" x="81" y="43.0898">(Machine)</text><rect fill="#3C3F41" height="48.0293" rx="2.5" ry="2.5" style="stroke:#E8E8E8;stroke-width:1.0;" width="84.1162" x="74" y="928.8047"/><text fill="#E8E8E8" font-family="Verdana" font-size="14" lengthAdjust="spacing" textLength="36.0322" x="98.042" y="949.8799">Node</text><text fill="#E8E8E8" font-family="Verdana" font-size="14" lengthAdjust="spacing" textLength="70.1162" x="81" y="966.8945">(Machine)</text><rect fill="#3C3F41" height="48.0293" rx="2.5" ry="2.5" style="stroke:#E8E8E8;stroke-width:1.0;" width="56.4922" x="188.1162" y="5"/><text fill="#E8E8E8" font-family="Verdana" font-size="14" lengthAdjust="spacing" textLength="42.4922" x="195.1162" y="26.0752">SPIRE</text><text fill="#E8E8E8" font-family="Verdana" font-size="14" lengthAdjust="spacing" textLength="41.0088" x="195.8579" y="43.0898">Agent</text><rect fill="#3C3F41" height="48.0293" rx="2.5" ry="2.5" style="stroke:#E8E8E8;stroke-width:1.0;" width="56.4922" x="188.1162" y="928.8047"/><text fill="#E8E8E8" font-family="Verdana" font-size="14" lengthAdjust="spacing" textLength="42.4922" x="195.1162" y="949.8799">SPIRE</text><text fill="#E8E8E8" font-family="Verdana" font-size="14" lengthAdjust="spacing" textLength="41.0088" x="195.8579" y="966.8945">Agent</text><rect fill="#3C3F41" height="48.0293" rx="2.5" ry="2.5" style="stroke:#E8E8E8;stroke-width:1.0;" width="60.4844" x="372.2837" y="5"/><text fill="#E8E8E8" font-family="Verdana" font-size="14" lengthAdjust="spacing" textLength="42.4922" x="381.2798" y="26.0752">SPIRE</text><text fill="#E8E8E8" font-family="Verdana" font-size="14" lengthAdjust="spacing" textLength="46.4844" x="379.2837" y="43.0898">Server</text><rect fill="#3C3F41" height="48.0293" rx="2.5" ry="2.5" style="stroke:#E8E8E8;stroke-width:1.0;" width="60.4844" x="372.2837" y="928.8047"/><text fill="#E8E8E8" font-family="Verdana" font-size="14" lengthAdjust="spacing" textLength="42.4922" x="381.2798" y="949.8799">SPIRE</text><text fill="#E8E8E8" font-family="Verdana" font-size="14" lengthAdjust="spacing" textLength="46.4844" x="379.2837" y="966.8945">Server</text><rect fill="#3C3F41" height="48.0293" rx="2.5" ry="2.5" style="stroke:#E8E8E8;stroke-width:1.0;" width="92.7842" x="521.4302" y="5"/><text fill="#E8E8E8" font-family="Verdana" font-size="14" lengthAdjust="spacing" textLength="51.6455" x="541.9995" y="26.0752">Service</text><text fill="#E8E8E8" font-family="Verdana" font-size="14" lengthAdjust="spacing" textLength="78.7842" x="528.4302" y="43.0898">(Workload)</text><rect fill="#3C3F41" height="48.0293" rx="2.5" ry="2.5" style="stroke:#E8E8E8;stroke-width:1.0;" width="92.7842" x="521.4302" y="928.8047"/><text fill="#E8E8E8" font-family="Verdana" font-size="14" lengthAdjust="spacing" textLength="51.6455" x="541.9995" y="949.8799">Service</text><text fill="#E8E8E8" font-family="Verdana" font-size="14" lengthAdjust="spacing" textLength="78.7842" x="528.4302" y="966.8945">(Workload)</text><rect fill="#FFFFFF" height="3" style="stroke:#FFFFFF;stroke-width:1.0;" width="773.7954" x="5" y="84.929"/><line style="stroke:#000000;stroke-width:0.5;" x1="5" x2="778.7954" y1="84.929" y2="84.929"/><line style="stroke:#000000;stroke-width:0.5;" x1="5" x2="778.7954" y1="87.929" y2="87.929"/><rect fill="#FFFFFF" height="23.7993" style="stroke:#000000;stroke-width:1.0;" width="141.9814" x="320.907" y="74.0293"/><text fill="#E8E8E8" font-family="Verdana" font-size="13" font-weight="bold" lengthAdjust="spacing" textLength="123.5381" x="326.907" y="91.0991">Node Attestation</text><polygon fill="#E8E8E8" points="204.3623,125.6279,214.3623,129.6279,204.3623,133.6279,208.3623,129.6279" style="stroke:#E8E8E8;stroke-width:1.0;"/><line style="stroke:#E8E8E8;stroke-width:1.0;" x1="116.0581" x2="210.3623" y1="129.6279" y2="129.6279"/><text fill="#E8E8E8" font-family="Verdana" font-size="13" lengthAdjust="spacing" textLength="74.0581" x="123.0581" y="124.8984">Start agent</text><polygon fill="#E8E8E8" points="390.5259,190.0259,400.5259,194.0259,390.5259,198.0259,394.5259,194.0259" style="stroke:#E8E8E8;stroke-width:1.0;"/><line style="stroke:#E8E8E8;stroke-width:1.0;" x1="216.3623" x2="396.5259" y1="194.0259" y2="194.0259"/><text fill="#E8E8E8" font-family="Verdana" font-size="13" lengthAdjust="spacing" textLength="162.1636" x="223.3623" y="189.2964">Node attestation request</text><path d="M407,142.6279 L407,230.6279 L664,230.6279 L664,152.6279 L654,142.6279 L407,142.6279 " fill="#3C3F41" style="stroke:#E8E8E8;stroke-width:1.0;"/><path d="M654,142.6279 L654,152.6279 L664,152.6279 L654,142.6279 " fill="#3C3F41" style="stroke:#E8E8E8;stroke-width:1.0;"/><text fill="#E8E8E8" font-family="Verdana" font-size="13" lengthAdjust="spacing" textLength="236.812" x="413" y="160.6978">Provides platform-specific evidence:</text><text fill="#E8E8E8" font-family="Verdana" font-size="13" lengthAdjust="spacing" textLength="187.1924" x="413" y="176.4971">- Cloud instance identity doc</text><text fill="#E8E8E8" font-family="Verdana" font-size="13" lengthAdjust="spacing" textLength="78.9331" x="413" y="192.2964">- TPM quote</text><text fill="#E8E8E8" font-family="Verdana" font-size="13" lengthAdjust="spacing" textLength="230.3818" x="413" y="208.0957">- Kubernetes ServiceAccount token</text><text fill="#E8E8E8" font-family="Verdana" font-size="13" lengthAdjust="spacing" textLength="24.3687" x="413" y="223.895">etc.</text><line style="stroke:#E8E8E8;stroke-width:1.0;" x1="402.5259" x2="444.5259" y1="258.4238" y2="258.4238"/><line style="stroke:#E8E8E8;stroke-width:1.0;" x1="444.5259" x2="444.5259" y1="258.4238" y2="271.4238"/><line style="stroke:#E8E8E8;stroke-width:1.0;" x1="403.5259" x2="444.5259" y1="271.4238" y2="271.4238"/><polygon fill="#E8E8E8" points="413.5259,267.4238,403.5259,271.4238,413.5259,275.4238,409.5259,271.4238" style="stroke:#E8E8E8;stroke-width:1.0;"/><text fill="#E8E8E8" font-family="Verdana" font-size="13" lengthAdjust="spacing" textLength="151.2964" x="409.5259" y="253.6943">Validate node evidence</text><polygon fill="#E8E8E8" points="227.3623,323.9221,217.3623,327.9221,227.3623,331.9221,223.3623,327.9221" style="stroke:#E8E8E8;stroke-width:1.0;"/><line style="stroke:#E8E8E8;stroke-width:1.0;" x1="221.3623" x2="401.5259" y1="327.9221" y2="327.9221"/><text fill="#E8E8E8" font-family="Verdana" font-size="13" lengthAdjust="spacing" textLength="110.8491" x="233.3623" y="323.1926">Issue Node SVID</text><path d="M10,284.4238 L10,357.4238 L212,357.4238 L212,294.4238 L202,284.4238 L10,284.4238 " fill="#3C3F41" style="stroke:#E8E8E8;stroke-width:1.0;"/><path d="M202,284.4238 L202,294.4238 L212,294.4238 L202,284.4238 " fill="#3C3F41" style="stroke:#E8E8E8;stroke-width:1.0;"/><text fill="#E8E8E8" font-family="Verdana" font-size="13" lengthAdjust="spacing" textLength="181.1621" x="16" y="302.4937">Node SVID allows agent to:</text><text fill="#E8E8E8" font-family="Verdana" font-size="13" lengthAdjust="spacing" textLength="156.2476" x="16" y="318.293">- Authenticate to server</text><text fill="#E8E8E8" font-family="Verdana" font-size="13" lengthAdjust="spacing" textLength="179.1499" x="16" y="334.0923">- Receive workload registry</text><text fill="#E8E8E8" font-family="Verdana" font-size="13" lengthAdjust="spacing" textLength="171.5327" x="16" y="349.8916">- Request workload SVIDs</text><rect fill="#FFFFFF" height="3" style="stroke:#FFFFFF;stroke-width:1.0;" width="773.7954" x="5" y="383.5208"/><line style="stroke:#000000;stroke-width:0.5;" x1="5" x2="778.7954" y1="383.5208" y2="383.5208"/><line style="stroke:#000000;stroke-width:0.5;" x1="5" x2="778.7954" y1="386.5208" y2="386.5208"/><rect fill="#FFFFFF" height="23.7993" style="stroke:#000000;stroke-width:1.0;" width="174.2466" x="304.7744" y="372.6211"/><text fill="#E8E8E8" font-family="Verdana" font-size="13" font-weight="bold" lengthAdjust="spacing" textLength="155.8032" x="310.7744" y="389.6909">Workload Attestation</text><polygon fill="#E8E8E8" points="227.3623,450.9187,217.3623,454.9187,227.3623,458.9187,223.3623,454.9187" style="stroke:#E8E8E8;stroke-width:1.0;"/><line style="stroke:#E8E8E8;stroke-width:1.0;" x1="221.3623" x2="566.8223" y1="454.9187" y2="454.9187"/><text fill="#E8E8E8" font-family="Verdana" font-size="13" lengthAdjust="spacing" textLength="106.4629" x="233.3623" y="434.3899">Request identity</text><text fill="#E8E8E8" font-family="Verdana" font-size="13" lengthAdjust="spacing" textLength="163.8203" x="233.3623" y="450.1892">(via Unix domain socket)</text><path d="M572,411.4204 L572,468.4204 L767,468.4204 L767,421.4204 L757,411.4204 L572,411.4204 " fill="#3C3F41" style="stroke:#E8E8E8;stroke-width:1.0;"/><path d="M757,411.4204 L757,421.4204 L767,421.4204 L757,411.4204 " fill="#3C3F41" style="stroke:#E8E8E8;stroke-width:1.0;"/><text fill="#E8E8E8" font-family="Verdana" font-size="13" lengthAdjust="spacing" textLength="174.9731" x="578" y="429.4902">Workload makes no claims</text><text fill="#E8E8E8" font-family="Verdana" font-size="13" lengthAdjust="spacing" textLength="167.2163" x="578" y="445.2896">Agent discovers workload</text><text fill="#E8E8E8" font-family="Verdana" font-size="13" lengthAdjust="spacing" textLength="125.0488" x="578" y="461.0889">properties from OS</text><line style="stroke:#E8E8E8;stroke-width:1.0;" x1="216.3623" x2="258.3623" y1="539.5156" y2="539.5156"/><line style="stroke:#E8E8E8;stroke-width:1.0;" x1="258.3623" x2="258.3623" y1="539.5156" y2="552.5156"/><line style="stroke:#E8E8E8;stroke-width:1.0;" x1="217.3623" x2="258.3623" y1="552.5156" y2="552.5156"/><polygon fill="#E8E8E8" points="227.3623,548.5156,217.3623,552.5156,227.3623,556.5156,223.3623,552.5156" style="stroke:#E8E8E8;stroke-width:1.0;"/><text fill="#E8E8E8" font-family="Verdana" font-size="13" lengthAdjust="spacing" textLength="136.2271" x="223.3623" y="534.7861">Workload attestation</text><path d="M371.2271,478.8184 L371.2271,598.8184 L542.2271,598.8184 L542.2271,488.8184 L532.2271,478.8184 L371.2271,478.8184 " fill="#3C3F41" style="stroke:#E8E8E8;stroke-width:1.0;"/><path d="M532.2271,478.8184 L532.2271,488.8184 L542.2271,488.8184 L532.2271,478.8184 " fill="#3C3F41" style="stroke:#E8E8E8;stroke-width:1.0;"/><text fill="#E8E8E8" font-family="Verdana" font-size="13" lengthAdjust="spacing" textLength="150.0396" x="377.2271" y="496.8882">Checks properties like:</text><text fill="#E8E8E8" font-family="Verdana" font-size="13" lengthAdjust="spacing" textLength="33.8013" x="377.2271" y="512.6875">- PID</text><text fill="#E8E8E8" font-family="Verdana" font-size="13" lengthAdjust="spacing" textLength="35.4771" x="377.2271" y="528.4868">- UID</text><text fill="#E8E8E8" font-family="Verdana" font-size="13" lengthAdjust="spacing" textLength="88.6831" x="377.2271" y="544.2861">- Unix groups</text><text fill="#E8E8E8" font-family="Verdana" font-size="13" lengthAdjust="spacing" textLength="93.7422" x="377.2271" y="560.0854">- Container ID</text><text fill="#E8E8E8" font-family="Verdana" font-size="13" lengthAdjust="spacing" textLength="133.3135" x="377.2271" y="575.8848">- Signing authorities</text><text fill="#E8E8E8" font-family="Verdana" font-size="13" lengthAdjust="spacing" textLength="24.3687" x="377.2271" y="591.6841">etc.</text><polygon fill="#E8E8E8" points="390.5259,622.2129,400.5259,626.2129,390.5259,630.2129,394.5259,626.2129" style="stroke:#E8E8E8;stroke-width:1.0;"/><line style="stroke:#E8E8E8;stroke-width:1.0;" x1="216.3623" x2="396.5259" y1="626.2129" y2="626.2129"/><text fill="#E8E8E8" font-family="Verdana" font-size="13" lengthAdjust="spacing" textLength="154.2861" x="223.3623" y="621.4834">Request workload SVID</text><polygon fill="#E8E8E8" points="227.3623,652.0122,217.3623,656.0122,227.3623,660.0122,223.3623,656.0122" style="stroke:#E8E8E8;stroke-width:1.0;"/><line style="stroke:#E8E8E8;stroke-width:1.0;" x1="221.3623" x2="401.5259" y1="656.0122" y2="656.0122"/><text fill="#E8E8E8" font-family="Verdana" font-size="13" lengthAdjust="spacing" textLength="136.5254" x="233.3623" y="651.2827">Issue workload SVID</text><polygon fill="#E8E8E8" points="555.8223,716.4102,565.8223,720.4102,555.8223,724.4102,559.8223,720.4102" style="stroke:#E8E8E8;stroke-width:1.0;"/><line style="stroke:#E8E8E8;stroke-width:1.0;" x1="216.3623" x2="561.8223" y1="720.4102" y2="720.4102"/><text fill="#E8E8E8" font-family="Verdana" font-size="13" lengthAdjust="spacing" textLength="185.3198" x="223.3623" y="715.6807">Provide SVID + trust bundle</text><path d="M572,669.0122 L572,757.0122 L730,757.0122 L730,679.0122 L720,669.0122 L572,669.0122 " fill="#3C3F41" style="stroke:#E8E8E8;stroke-width:1.0;"/><path d="M720,669.0122 L720,679.0122 L730,679.0122 L720,669.0122 " fill="#3C3F41" style="stroke:#E8E8E8;stroke-width:1.0;"/><text fill="#E8E8E8" font-family="Verdana" font-size="13" lengthAdjust="spacing" textLength="98.1221" x="578" y="687.082">SVID contains:</text><text fill="#E8E8E8" font-family="Verdana" font-size="13" lengthAdjust="spacing" textLength="75.8926" x="578" y="702.8813">- SPIFFE ID</text><text fill="#E8E8E8" font-family="Verdana" font-size="13" lengthAdjust="spacing" textLength="76.248" x="578" y="718.6807">- Public key</text><text fill="#E8E8E8" font-family="Verdana" font-size="13" lengthAdjust="spacing" textLength="33.7314" x="578" y="734.48">- TTL</text><text fill="#E8E8E8" font-family="Verdana" font-size="13" lengthAdjust="spacing" textLength="137.8774" x="578" y="750.2793">Can be X.509 or JWT</text><rect fill="#FFFFFF" height="3" style="stroke:#FFFFFF;stroke-width:1.0;" width="773.7954" x="5" y="783.9084"/><line style="stroke:#000000;stroke-width:0.5;" x1="5" x2="778.7954" y1="783.9084" y2="783.9084"/><line style="stroke:#000000;stroke-width:0.5;" x1="5" x2="778.7954" y1="786.9084" y2="786.9084"/><rect fill="#FFFFFF" height="23.7993" style="stroke:#000000;stroke-width:1.0;" width="164.1919" x="309.8018" y="773.0088"/><text fill="#E8E8E8" font-family="Verdana" font-size="13" font-weight="bold" lengthAdjust="spacing" textLength="145.7485" x="315.8018" y="790.0786">Ongoing Operations</text><polygon fill="#E8E8E8" points="390.5259,843.4067,400.5259,847.4067,390.5259,851.4067,394.5259,847.4067" style="stroke:#E8E8E8;stroke-width:1.0;"/><line style="stroke:#E8E8E8;stroke-width:1.0;" x1="216.3623" x2="396.5259" y1="847.4067" y2="847.4067"/><text fill="#E8E8E8" font-family="Verdana" font-size="13" lengthAdjust="spacing" textLength="110.5063" x="223.3623" y="842.6772">Periodic check-in</text><path d="M407,811.8081 L407,868.8081 L615,868.8081 L615,821.8081 L605,811.8081 L407,811.8081 " fill="#3C3F41" style="stroke:#E8E8E8;stroke-width:1.0;"/><path d="M605,811.8081 L605,821.8081 L615,821.8081 L605,811.8081 " fill="#3C3F41" style="stroke:#E8E8E8;stroke-width:1.0;"/><text fill="#E8E8E8" font-family="Verdana" font-size="13" lengthAdjust="spacing" textLength="129.7271" x="413" y="829.8779">- Renew Node SVID</text><text fill="#E8E8E8" font-family="Verdana" font-size="13" lengthAdjust="spacing" textLength="175.2334" x="413" y="845.6772">- Update workload registry</text><text fill="#E8E8E8" font-family="Verdana" font-size="13" lengthAdjust="spacing" textLength="187.9287" x="413" y="861.4766">- Fetch trust bundle changes</text><polygon fill="#E8E8E8" points="227.3623,907.8047,217.3623,911.8047,227.3623,915.8047,223.3623,911.8047" style="stroke:#E8E8E8;stroke-width:1.0;"/><line style="stroke:#E8E8E8;stroke-width:1.0;" x1="221.3623" x2="566.8223" y1="911.8047" y2="911.8047"/><text fill="#E8E8E8" font-family="Verdana" font-size="13" lengthAdjust="spacing" textLength="141.3052" x="233.3623" y="891.2759">Request SVID refresh</text><text fill="#E8E8E8" font-family="Verdana" font-size="13" lengthAdjust="spacing" textLength="98.3188" x="233.3623" y="907.0752">(before expiry)</text><!--SRC=[XLHHJzim47xFhxYnbw6fQ1kRn2frKYbqOXiZ8WNsm8lhN5ChYHrifwN_VkSuILEQWYerZU_htNtVVUTtTeavGf4n8GEJ2bampNAOCvucMfKodgXCQNZ_vSnzEeWBNB0oirCbRGsvF7EV3cIijLeV2aRuLABa-9Eg5ETAnwXteHrioBGLN1HCslENZPrEJgTVFny0zwJj1UwpwE3-AejlbwrGhzPpY5SBUIdUh5Gh5c_EtnpIGN5VG7hQAhRgKESn0ZDmv7uyoW_NZ2-5nEEZ7TGuGVfsi2YykhrybDN1BYP2lKBT1VcJNTI3qcccMEnn113SbMsEgMum6lcknjQYiSmA9M4q2ggpmG_Von0YIrc1kPV0jqSnNt5Oi-hyNpjB6Xj86XHeaInjgpv0gDLAn6ZSgjY5qld05CZ5Gd105o0h3masW4ccoXY4fAnq1YvaXTr0h7WLduNNy5HIYUhjTpb7BP6QW9hec7CQgGMhKfI4GSjF0fGnkBQ2e5Qmm-EUPI9crB9qX9fcEi1QZ2jZIlIie_kh2qypmqMNPHi5bcLgRRnsr8ldDYxfkY0wt9Mp2anLemhT8aUnGbWtizEO26FrfevMqcwZheRfqA9vjbD_CTFsV4kbITU8I-PO2GPtKZoJpZdTPM0KJz4Uzm-pJPcpb9IN2ZXTWBcXaBT9B0nNHCsq7LEeqAf0SYdzOw5L3ZTHXq1hhxh5hOUtRFgRcIoHfwQRFHDfRQQGvkIUTytJCNGxNnXlDbfSOajphW6HIAIG2J2QbDB2fTltqDugz8xda8DsGMskXl2mMHNleuzWTKcfvtHDPTYlG0NadehnnEbsc4ul6rPXESzeqLBqRfhD_ZZTc8Gvmh-JRv- -0rrTlnvckuQwaOboMjoGhfN-njbfZto8MgYOqdCtY84uC2PdOedhpW9L0ocgrUjt_PHqN-xmfnfC9jXr_YlshdJHkD1ebcJnETAzGnl-N0YzEVuF]--></g></svg>