<svg xmlns="http://www.w3.org/2000/svg" xmlns:xlink="http://www.w3.org/1999/xlink" contentStyleType="text/css" height="1157px" preserveAspectRatio="none" style="width:902px;height:1157px;background:#282828;" version="1.1" viewBox="0 0 902 1157" width="902px" zoomAndPan="magnify"><defs/><g><rect fill="#282828" height="1157" style="stroke:none;stroke-width:1.0;" width="902" x="0" y="0"/><line style="stroke:#CCCCCC;stroke-width:1.0;" x1="60" x2="60" y1="54.0293" y2="1104.8013"/><line style="stroke:#CCCCCC;stroke-width:1.0;" x1="283.3608" x2="283.3608" y1="54.0293" y2="1104.8013"/><line style="stroke:#CCCCCC;stroke-width:1.0;" x1="499.4907" x2="499.4907" y1="54.0293" y2="1104.8013"/><rect fill="#3C3F41" height="48.0293" rx="2.5" ry="2.5" style="stroke:#E8E8E8;stroke-width:1.0;" width="80.1377" x="20" y="5"/><text fill="#E8E8E8" font-family="Verdana" font-size="14" lengthAdjust="spacing" textLength="66.1377" x="27" y="26.0752">Service A</text><text fill="#E8E8E8" font-family="Verdana" font-size="14" lengthAdjust="spacing" textLength="52.8896" x="33.624" y="43.0898">(Client)</text><rect fill="#3C3F41" height="48.0293" rx="2.5" ry="2.5" style="stroke:#E8E8E8;stroke-width:1.0;" width="80.1377" x="20" y="1103.8013"/><text fill="#E8E8E8" font-family="Verdana" font-size="14" lengthAdjust="spacing" textLength="66.1377" x="27" y="1124.8765">Service A</text><text fill="#E8E8E8" font-family="Verdana" font-size="14" lengthAdjust="spacing" textLength="52.8896" x="33.624" y="1141.8911">(Client)</text><rect fill="#3C3F41" height="48.0293" rx="2.5" ry="2.5" style="stroke:#E8E8E8;stroke-width:1.0;" width="120.3535" x="223.3608" y="5"/><text fill="#E8E8E8" font-family="Verdana" font-size="14" lengthAdjust="spacing" textLength="106.3535" x="230.3608" y="26.0752">SSH Certificate</text><text fill="#E8E8E8" font-family="Verdana" font-size="14" lengthAdjust="spacing" textLength="64.9209" x="251.0771" y="43.0898">Authority</text><rect fill="#3C3F41" height="48.0293" rx="2.5" ry="2.5" style="stroke:#E8E8E8;stroke-width:1.0;" width="120.3535" x="223.3608" y="1103.8013"/><text fill="#E8E8E8" font-family="Verdana" font-size="14" lengthAdjust="spacing" textLength="106.3535" x="230.3608" y="1124.8765">SSH Certificate</text><text fill="#E8E8E8" font-family="Verdana" font-size="14" lengthAdjust="spacing" textLength="64.9209" x="251.0771" y="1141.8911">Authority</text><rect fill="#3C3F41" height="48.0293" rx="2.5" ry="2.5" style="stroke:#E8E8E8;stroke-width:1.0;" width="109.0537" x="445.4907" y="5"/><text fill="#E8E8E8" font-family="Verdana" font-size="14" lengthAdjust="spacing" textLength="66.165" x="466.9351" y="26.0752">Service B</text><text fill="#E8E8E8" font-family="Verdana" font-size="14" lengthAdjust="spacing" textLength="95.0537" x="452.4907" y="43.0898">(Target Host)</text><rect fill="#3C3F41" height="48.0293" rx="2.5" ry="2.5" style="stroke:#E8E8E8;stroke-width:1.0;" width="109.0537" x="445.4907" y="1103.8013"/><text fill="#E8E8E8" font-family="Verdana" font-size="14" lengthAdjust="spacing" textLength="66.165" x="466.9351" y="1124.8765">Service B</text><text fill="#E8E8E8" font-family="Verdana" font-size="14" lengthAdjust="spacing" textLength="95.0537" x="452.4907" y="1141.8911">(Target Host)</text><rect fill="#FFFFFF" height="3" style="stroke:#FFFFFF;stroke-width:1.0;" width="890.3999" x="5" y="84.929"/><line style="stroke:#000000;stroke-width:0.5;" x1="5" x2="895.3999" y1="84.929" y2="84.929"/><line style="stroke:#000000;stroke-width:0.5;" x1="5" x2="895.3999" y1="87.929" y2="87.929"/><rect fill="#FFFFFF" height="23.7993" style="stroke:#000000;stroke-width:1.0;" width="109.3228" x="395.5386" y="74.0293"/><text fill="#000000" font-family="Verdana" font-size="13" font-weight="bold" lengthAdjust="spacing" textLength="90.8794" x="401.5386" y="91.0991">Initial Setup</text><line style="stroke:#E8E8E8;stroke-width:1.0;" x1="500.0176" x2="542.0176" y1="129.6279" y2="129.6279"/><line style="stroke:#E8E8E8;stroke-width:1.0;" x1="542.0176" x2="542.0176" y1="129.6279" y2="142.6279"/><line style="stroke:#E8E8E8;stroke-width:1.0;" x1="501.0176" x2="542.0176" y1="142.6279" y2="142.6279"/><polygon fill="#E8E8E8" points="511.0176,138.6279,501.0176,142.6279,511.0176,146.6279,507.0176,142.6279" style="stroke:#E8E8E8;stroke-width:1.0;"/><text fill="#E8E8E8" font-family="Verdana" font-size="13" lengthAdjust="spacing" textLength="149.8936" x="507.0176" y="124.8984">Generate host key pair</text><polygon fill="#E8E8E8" points="294.5376,168.4272,284.5376,172.4272,294.5376,176.4272,290.5376,172.4272" style="stroke:#E8E8E8;stroke-width:1.0;"/><line style="stroke:#E8E8E8;stroke-width:1.0;" x1="288.5376" x2="499.0176" y1="172.4272" y2="172.4272"/><text fill="#E8E8E8" font-family="Verdana" font-size="13" lengthAdjust="spacing" textLength="149.7349" x="300.5376" y="167.6978">Submit host public key</text><polygon fill="#E8E8E8" points="488.0176,240.7249,498.0176,244.7249,488.0176,248.7249,492.0176,244.7249" style="stroke:#E8E8E8;stroke-width:1.0;"/><line style="stroke:#E8E8E8;stroke-width:1.0;" x1="283.5376" x2="494.0176" y1="244.7249" y2="244.7249"/><text fill="#E8E8E8" font-family="Verdana" font-size="13" lengthAdjust="spacing" textLength="192.48" x="290.5376" y="239.9954">Return signed host certificate</text><path d="M505,185.4272 L505,289.4272 L722,289.4272 L722,195.4272 L712,185.4272 L505,185.4272 " fill="#3C3F41" style="stroke:#E8E8E8;stroke-width:1.0;"/><path d="M712,185.4272 L712,195.4272 L722,195.4272 L712,185.4272 " fill="#3C3F41" style="stroke:#E8E8E8;stroke-width:1.0;"/><text fill="#E8E8E8" font-family="Verdana" font-size="13" lengthAdjust="spacing" textLength="122.7637" x="511" y="203.4971">Host cert includes:</text><text fill="#E8E8E8" font-family="Verdana" font-size="13" lengthAdjust="spacing" textLength="110.6333" x="511" y="219.2964">- Host public key</text><text fill="#E8E8E8" font-family="Verdana" font-size="13" lengthAdjust="spacing" textLength="196.5869" x="511" y="235.0957">- Valid principals (hostnames)</text><text fill="#E8E8E8" font-family="Verdana" font-size="13" lengthAdjust="spacing" textLength="104.3047" x="511" y="250.895">- Validity period</text><text fill="#E8E8E8" font-family="Verdana" font-size="13" lengthAdjust="spacing" textLength="102.6543" x="511" y="266.6943">- Serial number</text><text fill="#E8E8E8" font-family="Verdana" font-size="13" lengthAdjust="spacing" textLength="94.123" x="511" y="282.4937">- CA signature</text><line style="stroke:#E8E8E8;stroke-width:1.0;" x1="60.0688" x2="102.0688" y1="317.0225" y2="317.0225"/><line style="stroke:#E8E8E8;stroke-width:1.0;" x1="102.0688" x2="102.0688" y1="317.0225" y2="330.0225"/><line style="stroke:#E8E8E8;stroke-width:1.0;" x1="61.0688" x2="102.0688" y1="330.0225" y2="330.0225"/><polygon fill="#E8E8E8" points="71.0688,326.0225,61.0688,330.0225,71.0688,334.0225,67.0688,330.0225" style="stroke:#E8E8E8;stroke-width:1.0;"/><text fill="#E8E8E8" font-family="Verdana" font-size="13" lengthAdjust="spacing" textLength="156.8823" x="67.0688" y="312.293">Generate client key pair</text><polygon fill="#E8E8E8" points="271.5376,355.8218,281.5376,359.8218,271.5376,363.8218,275.5376,359.8218" style="stroke:#E8E8E8;stroke-width:1.0;"/><line style="stroke:#E8E8E8;stroke-width:1.0;" x1="60.0688" x2="277.5376" y1="359.8218" y2="359.8218"/><text fill="#E8E8E8" font-family="Verdana" font-size="13" lengthAdjust="spacing" textLength="156.7236" x="67.0688" y="355.0923">Submit client public key</text><polygon fill="#E8E8E8" points="71.0688,428.1194,61.0688,432.1194,71.0688,436.1194,67.0688,432.1194" style="stroke:#E8E8E8;stroke-width:1.0;"/><line style="stroke:#E8E8E8;stroke-width:1.0;" x1="65.0688" x2="282.5376" y1="432.1194" y2="432.1194"/><text fill="#E8E8E8" font-family="Verdana" font-size="13" lengthAdjust="spacing" textLength="199.4688" x="77.0688" y="427.3899">Return signed client certificate</text><path d="M288,372.8218 L288,476.8218 L527,476.8218 L527,382.8218 L517,372.8218 L288,372.8218 " fill="#3C3F41" style="stroke:#E8E8E8;stroke-width:1.0;"/><path d="M517,372.8218 L517,382.8218 L527,382.8218 L517,372.8218 " fill="#3C3F41" style="stroke:#E8E8E8;stroke-width:1.0;"/><text fill="#E8E8E8" font-family="Verdana" font-size="13" lengthAdjust="spacing" textLength="130.5142" x="294" y="390.8916">Client cert includes:</text><text fill="#E8E8E8" font-family="Verdana" font-size="13" lengthAdjust="spacing" textLength="118.3838" x="294" y="406.6909">- Client public key</text><text fill="#E8E8E8" font-family="Verdana" font-size="13" lengthAdjust="spacing" textLength="218.9878" x="294" y="422.4902">- Valid principals (service names)</text><text fill="#E8E8E8" font-family="Verdana" font-size="13" lengthAdjust="spacing" textLength="104.3047" x="294" y="438.2896">- Validity period</text><text fill="#E8E8E8" font-family="Verdana" font-size="13" lengthAdjust="spacing" textLength="102.6543" x="294" y="454.0889">- Serial number</text><text fill="#E8E8E8" font-family="Verdana" font-size="13" lengthAdjust="spacing" textLength="94.123" x="294" y="469.8882">- CA signature</text><rect fill="#FFFFFF" height="3" style="stroke:#FFFFFF;stroke-width:1.0;" width="890.3999" x="5" y="503.5173"/><line style="stroke:#000000;stroke-width:0.5;" x1="5" x2="895.3999" y1="503.5173" y2="503.5173"/><line style="stroke:#000000;stroke-width:0.5;" x1="5" x2="895.3999" y1="506.5173" y2="506.5173"/><rect fill="#FFFFFF" height="23.7993" style="stroke:#000000;stroke-width:1.0;" width="164.8267" x="367.7866" y="492.6177"/><text fill="#000000" font-family="Verdana" font-size="13" font-weight="bold" lengthAdjust="spacing" textLength="146.3833" x="373.7866" y="509.6875">Trust Establishment</text><line style="stroke:#E8E8E8;stroke-width:1.0;" x1="500.0176" x2="542.0176" y1="568.4153" y2="568.4153"/><line style="stroke:#E8E8E8;stroke-width:1.0;" x1="542.0176" x2="542.0176" y1="568.4153" y2="581.4153"/><line style="stroke:#E8E8E8;stroke-width:1.0;" x1="501.0176" x2="542.0176" y1="581.4153" y2="581.4153"/><polygon fill="#E8E8E8" points="511.0176,577.4153,501.0176,581.4153,511.0176,585.4153,507.0176,581.4153" style="stroke:#E8E8E8;stroke-width:1.0;"/><text fill="#E8E8E8" font-family="Verdana" font-size="13" lengthAdjust="spacing" textLength="207.2954" x="507.0176" y="563.6858">Configure trusted CA public key</text><path d="M726.2954,531.417 L726.2954,604.417 L885.2954,604.417 L885.2954,541.417 L875.2954,531.417 L726.2954,531.417 " fill="#3C3F41" style="stroke:#E8E8E8;stroke-width:1.0;"/><path d="M875.2954,531.417 L875.2954,541.417 L885.2954,541.417 L875.2954,531.417 " fill="#3C3F41" style="stroke:#E8E8E8;stroke-width:1.0;"/><text fill="#E8E8E8" font-family="Verdana" font-size="13" lengthAdjust="spacing" textLength="122.002" x="732.2954" y="549.4868">In known_hosts or</text><text fill="#E8E8E8" font-family="Verdana" font-size="13" lengthAdjust="spacing" textLength="128.2861" x="732.2954" y="565.2861">TrustedUserCAKeys</text><text fill="#E8E8E8" font-family="Verdana" font-size="13" lengthAdjust="spacing" textLength="138.0869" x="732.2954" y="581.0854">One CA key trusts all</text><text fill="#E8E8E8" font-family="Verdana" font-size="13" lengthAdjust="spacing" textLength="118.6123" x="732.2954" y="596.8848">signed client certs</text><line style="stroke:#E8E8E8;stroke-width:1.0;" x1="60.0688" x2="102.0688" y1="651.6125" y2="651.6125"/><line style="stroke:#E8E8E8;stroke-width:1.0;" x1="102.0688" x2="102.0688" y1="651.6125" y2="664.6125"/><line style="stroke:#E8E8E8;stroke-width:1.0;" x1="61.0688" x2="102.0688" y1="664.6125" y2="664.6125"/><polygon fill="#E8E8E8" points="71.0688,660.6125,61.0688,664.6125,71.0688,668.6125,67.0688,664.6125" style="stroke:#E8E8E8;stroke-width:1.0;"/><text fill="#E8E8E8" font-family="Verdana" font-size="13" lengthAdjust="spacing" textLength="207.2954" x="67.0688" y="646.8831">Configure trusted CA public key</text><path d="M286.2954,614.6143 L286.2954,687.6143 L454.2954,687.6143 L454.2954,624.6143 L444.2954,614.6143 L286.2954,614.6143 " fill="#3C3F41" style="stroke:#E8E8E8;stroke-width:1.0;"/><path d="M444.2954,614.6143 L444.2954,624.6143 L454.2954,624.6143 L444.2954,614.6143 " fill="#3C3F41" style="stroke:#E8E8E8;stroke-width:1.0;"/><text fill="#E8E8E8" font-family="Verdana" font-size="13" lengthAdjust="spacing" textLength="122.002" x="292.2954" y="632.6841">In known_hosts or</text><text fill="#E8E8E8" font-family="Verdana" font-size="13" lengthAdjust="spacing" textLength="147.6655" x="292.2954" y="648.4834">globally via ssh_config</text><text fill="#E8E8E8" font-family="Verdana" font-size="13" lengthAdjust="spacing" textLength="138.0869" x="292.2954" y="664.2827">One CA key trusts all</text><text fill="#E8E8E8" font-family="Verdana" font-size="13" lengthAdjust="spacing" textLength="111.6235" x="292.2954" y="680.082">signed host certs</text><rect fill="#FFFFFF" height="3" style="stroke:#FFFFFF;stroke-width:1.0;" width="890.3999" x="5" y="713.7112"/><line style="stroke:#000000;stroke-width:0.5;" x1="5" x2="895.3999" y1="713.7112" y2="713.7112"/><line style="stroke:#000000;stroke-width:0.5;" x1="5" x2="895.3999" y1="716.7112" y2="716.7112"/><rect fill="#FFFFFF" height="23.7993" style="stroke:#000000;stroke-width:1.0;" width="212.2563" x="344.0718" y="702.8115"/><text fill="#000000" font-family="Verdana" font-size="13" font-weight="bold" lengthAdjust="spacing" textLength="193.813" x="350.0718" y="719.8813">Connection Authentication</text><polygon fill="#E8E8E8" points="488.0176,754.4102,498.0176,758.4102,488.0176,762.4102,492.0176,758.4102" style="stroke:#E8E8E8;stroke-width:1.0;"/><line style="stroke:#E8E8E8;stroke-width:1.0;" x1="60.0688" x2="494.0176" y1="758.4102" y2="758.4102"/><text fill="#E8E8E8" font-family="Verdana" font-size="13" lengthAdjust="spacing" textLength="156.3809" x="67.0688" y="753.6807">SSH connection request</text><polygon fill="#E8E8E8" points="71.0688,784.2095,61.0688,788.2095,71.0688,792.2095,67.0688,788.2095" style="stroke:#E8E8E8;stroke-width:1.0;"/><line style="stroke:#E8E8E8;stroke-width:1.0;" x1="65.0688" x2="499.0176" y1="788.2095" y2="788.2095"/><text fill="#E8E8E8" font-family="Verdana" font-size="13" lengthAdjust="spacing" textLength="150.4902" x="77.0688" y="783.48">Present host certificate</text><line style="stroke:#E8E8E8;stroke-width:1.0;" x1="60.0688" x2="102.0688" y1="833.8081" y2="833.8081"/><line style="stroke:#E8E8E8;stroke-width:1.0;" x1="102.0688" x2="102.0688" y1="833.8081" y2="846.8081"/><line style="stroke:#E8E8E8;stroke-width:1.0;" x1="61.0688" x2="102.0688" y1="846.8081" y2="846.8081"/><polygon fill="#E8E8E8" points="71.0688,842.8081,61.0688,846.8081,71.0688,850.8081,67.0688,846.8081" style="stroke:#E8E8E8;stroke-width:1.0;"/><text fill="#E8E8E8" font-family="Verdana" font-size="13" lengthAdjust="spacing" textLength="114.9434" x="67.0688" y="813.2793">Validate host cert</text><text fill="#E8E8E8" font-family="Verdana" font-size="13" lengthAdjust="spacing" textLength="128.0322" x="67.0688" y="829.0786">using CA public key</text><polygon fill="#E8E8E8" points="488.0176,872.6074,498.0176,876.6074,488.0176,880.6074,492.0176,876.6074" style="stroke:#E8E8E8;stroke-width:1.0;"/><line style="stroke:#E8E8E8;stroke-width:1.0;" x1="60.0688" x2="494.0176" y1="876.6074" y2="876.6074"/><text fill="#E8E8E8" font-family="Verdana" font-size="13" lengthAdjust="spacing" textLength="157.479" x="67.0688" y="871.8779">Present client certificate</text><line style="stroke:#E8E8E8;stroke-width:1.0;" x1="500.0176" x2="542.0176" y1="942.405" y2="942.405"/><line style="stroke:#E8E8E8;stroke-width:1.0;" x1="542.0176" x2="542.0176" y1="942.405" y2="955.405"/><line style="stroke:#E8E8E8;stroke-width:1.0;" x1="501.0176" x2="542.0176" y1="955.405" y2="955.405"/><polygon fill="#E8E8E8" points="511.0176,951.405,501.0176,955.405,511.0176,959.405,507.0176,955.405" style="stroke:#E8E8E8;stroke-width:1.0;"/><text fill="#E8E8E8" font-family="Verdana" font-size="13" lengthAdjust="spacing" textLength="121.9321" x="507.0176" y="921.8762">Validate client cert</text><text fill="#E8E8E8" font-family="Verdana" font-size="13" lengthAdjust="spacing" textLength="128.0322" x="507.0176" y="937.6755">using CA public key</text><path d="M647.0322,889.6074 L647.0322,977.6074 L826.0322,977.6074 L826.0322,899.6074 L816.0322,889.6074 L647.0322,889.6074 " fill="#3C3F41" style="stroke:#E8E8E8;stroke-width:1.0;"/><path d="M816.0322,889.6074 L816.0322,899.6074 L826.0322,899.6074 L816.0322,889.6074 " fill="#3C3F41" style="stroke:#E8E8E8;stroke-width:1.0;"/><text fill="#E8E8E8" font-family="Verdana" font-size="13" lengthAdjust="spacing" textLength="52.1904" x="653.0322" y="907.6772">Checks:</text><text fill="#E8E8E8" font-family="Verdana" font-size="13" lengthAdjust="spacing" textLength="129.4287" x="653.0322" y="923.4766">- CA signature valid</text><text fill="#E8E8E8" font-family="Verdana" font-size="13" lengthAdjust="spacing" textLength="116.8413" x="653.0322" y="939.2759">- Cert not expired</text><text fill="#E8E8E8" font-family="Verdana" font-size="13" lengthAdjust="spacing" textLength="158.3804" x="653.0322" y="955.0752">- Principal names match</text><text fill="#E8E8E8" font-family="Verdana" font-size="13" lengthAdjust="spacing" textLength="130.3872" x="653.0322" y="970.8745">- Serial not revoked</text><rect fill="#FFFFFF" height="3" style="stroke:#FFFFFF;stroke-width:1.0;" width="890.3999" x="5" y="1004.5037"/><line style="stroke:#000000;stroke-width:0.5;" x1="5" x2="895.3999" y1="1004.5037" y2="1004.5037"/><line style="stroke:#000000;stroke-width:0.5;" x1="5" x2="895.3999" y1="1007.5037" y2="1007.5037"/><rect fill="#FFFFFF" height="23.7993" style="stroke:#000000;stroke-width:1.0;" width="182.5303" x="358.9348" y="993.604"/><text fill="#000000" font-family="Verdana" font-size="13" font-weight="bold" lengthAdjust="spacing" textLength="164.0869" x="364.9348" y="1010.6738">Session Establishment</text><polygon fill="#E8E8E8" points="71.0688,1064.002,61.0688,1068.002,71.0688,1072.002,67.0688,1068.002" style="stroke:#E8E8E8;stroke-width:1.0;"/><polygon fill="#E8E8E8" points="488.0176,1064.002,498.0176,1068.002,488.0176,1072.002,492.0176,1068.002" style="stroke:#E8E8E8;stroke-width:1.0;"/><line style="stroke:#E8E8E8;stroke-width:1.0;" x1="65.0688" x2="494.0176" y1="1068.002" y2="1068.002"/><text fill="#E8E8E8" font-family="Verdana" font-size="13" lengthAdjust="spacing" textLength="212.8877" x="77.0688" y="1063.2725">Key exchange and session setup</text><path d="M505,1032.4033 L505,1089.4033 L712,1089.4033 L712,1042.4033 L702,1032.4033 L505,1032.4033 " fill="#3C3F41" style="stroke:#E8E8E8;stroke-width:1.0;"/><path d="M702,1032.4033 L702,1042.4033 L712,1042.4033 L702,1032.4033 " fill="#3C3F41" style="stroke:#E8E8E8;stroke-width:1.0;"/><text fill="#E8E8E8" font-family="Verdana" font-size="13" lengthAdjust="spacing" textLength="186.2974" x="511" y="1050.4731">Standard SSH key exchange</text><text fill="#E8E8E8" font-family="Verdana" font-size="13" lengthAdjust="spacing" textLength="135.5034" x="511" y="1066.2725">but trust is based on</text><text fill="#E8E8E8" font-family="Verdana" font-size="13" lengthAdjust="spacing" textLength="142.0605" x="511" y="1082.0718">CA-signed certificates</text><!--SRC=[jLLDJzj04BtxLqpf1Gw8KZWWr5Ho307Kgg26zeI4rkj9l8gpw-wk0-clxuppPJjEGWlTY4CcRz-yUJEplFCfZX7oJ2WTk97IkR1Y3B6Gew4rXKuYanaBxp-UyQU2kC21A3BVCzhF8PTd_Ab0GclDqwOV-_YhG2tnYhBaNMCJj7Le1Nidh5TIvKBxRbFOINJIEptU06wXRGMkLr71VJCUTwSjKLlpCM9hehebEpCs74octPrDssXs0_9ocTSeY6pR5Fp_gXPNlge1PahNso3BqwR_GarKNVk7yhnO-yK9Vu3EqH51lQki3SWICw0_3kGGcsTqBvh_a_B0_2ofIyZVqJPAw_K0chG3WgoHPYB6R2jhN_r6E3w5nY7MszmheqLsNk5tZ5wZR-j9rpo_pkQqd4UtWVhDRIRIVpLvgz9NUxnW3u9yzSmHt4wKn124Wxtv5mWVz7wKATJ-OA-6ZkQu_ZL4IE61aiBZWmuBdngh_7IlZRnR8-yI-RsmG_HmRHnd23eTkD7AAv6nVDBQwGJBkuUVbppdS8KQBQM4bAx22AUG2sLhu2Wa4ufuhFmCb1TnfYHZ0v9VO_jEoQmceuOQanbQhieAD3tFODKmzSjN2KhD9GgKbbcHe3kdwE4iNid5iPyYKmdabf1aIEPWdtDeCKPti0AGRP2ZLIOfOoIFZT35E4PRHaWsInGa5WEa4MTXGR1itQgciEAGB1kuvb7Oy6WEs-HIs7HfZj_fKxJ2DPoArZAsU-Nc0_DMVj6KtTk2kdJflA3SBXspZesp5XazK4FY0C_Ng7OYhgXkBVj6mqYR9_t8dNPWMD7zxFeFAYWAl-3KKUnM8zDnTqfs1oBBABxkijlPyZSJEinCJ3AcC542d4iVPScyM-voTLpTRrAcKVBJ1Fn4K4ayCVnrvNfZ9_bjaQjhbbz0vzjQH9NVMNJiqzhgjXjLZi_ozM3yWowSqiE6OUtA5ibQDg1zW9RfAZVQ4xPlK8fojDYPoaZ3X7bdOTukkWpud2kBi-3TOeTccmDZuMLQMnMwO75YHdIXrgu-EiUcRrgG43xL2gHPfimo5Ng888Z9pGaSl-BjLVKz0OLDoaQFAWJqMrpusNY1ud_fZYRBQ7OYF5pinShqogZz0G00]--></g></svg>